<svg xmlns="http://www.w3.org/2000/svg" version="1.1" xmlns:xlink="http://www.w3.org/1999/xlink" xmlns:svgjs="http://svgjs.dev/svgjs" width="1500" height="1500" viewBox="0 0 1500 1500"><rect width="1500" height="1500" fill="#ffffff"></rect><g transform="matrix(0.6666666666666666,0,0,0.6666666666666666,249.39393939393932,650.4206912439016)"><svg viewBox="0 0 396 79" data-background-color="#ffffff" preserveAspectRatio="xMidYMid meet" height="299" width="1500" xmlns="http://www.w3.org/2000/svg" xmlns:xlink="http://www.w3.org/1999/xlink"><g id="tight-bounds" transform="matrix(1,0,0,1,0.24000000000003752,-0.034621780609796815)"><svg viewBox="0 0 395.5199999999999 79.06924356121958" height="79.06924356121958" width="395.5199999999999"><g><svg viewBox="0 0 507.7464970016728 101.50468102442689" height="79.06924356121958" width="395.5199999999999"><g transform="matrix(1,0,0,1,0,14.028505119873763)"><svg viewBox="0 0 395.5199999999999 73.44767078467936" height="73.44767078467936" width="395.5199999999999"><g id="textblocktransform"><svg viewBox="0 0 395.5199999999999 73.44767078467936" height="73.44767078467936" width="395.5199999999999" id="textblock"><g><svg viewBox="0 0 395.5199999999999 45.41679788392718" height="45.41679788392718" width="395.5199999999999"><g transform="matrix(1,0,0,1,0,0)"><svg width="395.5199999999999" viewBox="1.6 -36.3 321.33 36.9" height="45.41679788392718" data-palette-color="#085f63"><path d="M15.55-27Q20.85-27 24.53-24.93 28.2-22.85 28.2-18.5L28.2-18.5 18.95-18.5Q18.95-19.95 17.65-20.55L17.65-20.55Q16.75-21.05 15.4-21.05L15.4-21.05Q11.8-21.05 11.8-19.35L11.8-19.35Q11.8-18.4 13.05-18 14.3-17.6 17.15-17.15L17.15-17.15Q20.65-16.65 23-15.98 25.35-15.3 27.1-13.58 28.85-11.85 28.85-8.75L28.85-8.75Q28.85-3.7 25.08-1.55 21.3 0.6 15.2 0.6L15.2 0.6Q11.7 0.6 8.6-0.38 5.5-1.35 3.55-3.4 1.6-5.45 1.6-8.6L1.6-8.6 10.85-8.6 10.85-8.4Q10.9-6.7 12.28-6.03 13.65-5.35 15.2-5.35L15.2-5.35Q19.35-5.35 19.35-7.3L19.35-7.3Q19.35-8.3 18.05-8.75 16.75-9.2 13.8-9.7L13.8-9.7Q10.25-10.3 7.98-11 5.7-11.7 4-13.38 2.3-15.05 2.3-18.05L2.3-18.05Q2.3-22.9 5.98-24.95 9.65-27 15.55-27L15.55-27ZM60.85 0L52.7 0 52.05-4Q50.5-1.85 47.97-0.63 45.45 0.6 42.65 0.6L42.65 0.6Q38.05 0.6 35.75-1.95 33.45-4.5 33.45-9.3L33.45-9.3 33.45-26.4 43.4-26.4 43.4-10.5Q43.4-8.8 44.27-7.78 45.15-6.75 46.75-6.75L46.75-6.75Q48.6-6.75 49.75-7.95 50.9-9.15 50.9-10.9L50.9-10.9 50.9-26.4 60.85-26.4 60.85 0ZM76.9-23.95Q79.75-27 84.3-27L84.3-27Q89.65-27 92.55-23.53 95.45-20.05 95.45-13.25L95.45-13.25Q95.45-6.4 92.55-2.9 89.65 0.6 84.3 0.6L84.3 0.6Q78.8 0.6 75.9-3.75L75.9-3.75 75.05 0 66.95 0 66.95-36.25 76.9-36.25 76.9-23.95ZM81.2-19.65Q79-19.65 77.9-18.07 76.8-16.5 76.8-14L76.8-14 76.8-12.35Q76.8-9.85 77.9-8.3 79-6.75 81.2-6.75L81.2-6.75Q85.5-6.75 85.5-11.85L85.5-11.85 85.5-14.5Q85.5-19.65 81.2-19.65L81.2-19.65ZM118.44-27Q123.04-27 125.34-24.45 127.64-21.9 127.64-17.1L127.64-17.1 127.64 0 117.69 0 117.69-15.9Q117.69-17.6 116.82-18.63 115.94-19.65 114.34-19.65L114.34-19.65Q112.49-19.65 111.34-18.45 110.19-17.25 110.19-15.5L110.19-15.5 110.19 0 100.24 0 100.24-26.4 108.39-26.4 109.04-22.4Q110.59-24.5 113.12-25.75 115.64-27 118.44-27L118.44-27ZM147.24-27Q154.49-27 158.31-23.6 162.14-20.2 162.14-13.2L162.14-13.2 162.14-11.5 142.34-11.5Q142.34-8.65 143.62-7.2 144.89-5.75 147.64-5.75L147.64-5.75Q150.14-5.75 151.31-6.8 152.49-7.85 152.49-9.6L152.49-9.6 162.14-9.6Q162.14-4.8 158.49-2.1 154.84 0.6 147.84 0.6L147.84 0.6Q140.49 0.6 136.44-2.83 132.39-6.25 132.39-13.2L132.39-13.2Q132.39-20 136.34-23.5 140.29-27 147.24-27L147.24-27ZM147.64-20.65Q142.94-20.65 142.39-16.2L142.39-16.2 152.09-16.2Q152.09-18.25 150.92-19.45 149.74-20.65 147.64-20.65L147.64-20.65ZM178.94-26.4L184.54-26.4 184.54-19.65 178.94-19.65 178.94-9.6Q178.94-7.8 179.54-6.98 180.14-6.15 181.74-6.15L181.74-6.15 184.54-6.15 184.54-0.3Q183.34 0.1 181.44 0.35 179.54 0.6 178.14 0.6L178.14 0.6Q173.74 0.6 171.36-1 168.99-2.6 168.99-6.45L168.99-6.45 168.99-19.65 165.29-19.65 165.29-26.4 169.39-26.4 171.54-34.4 178.94-34.4 178.94-26.4ZM223.63 0L213.94 0 209.83-14.7 209.63-14.7 205.48 0 195.78 0 186.13-26.4 196.83-26.4 200.83-10.8 201.19-10.8 205.33-26.4 215.23-26.4 219.23-10.8 219.58-10.8 223.63-26.4 233.33-26.4 223.63 0ZM249.13-27Q256.08-27 260.06-23.48 264.03-19.95 264.03-13.2L264.03-13.2Q264.03-6.45 260.06-2.93 256.08 0.6 249.13 0.6L249.13 0.6Q242.18 0.6 238.23-2.9 234.28-6.4 234.28-13.2L234.28-13.2Q234.28-20 238.23-23.5 242.18-27 249.13-27L249.13-27ZM249.13-20.25Q244.23-20.25 244.23-14.6L244.23-14.6 244.23-11.75Q244.23-6.15 249.13-6.15L249.13-6.15Q254.08-6.15 254.08-11.75L254.08-11.75 254.08-14.6Q254.08-20.25 249.13-20.25L249.13-20.25ZM284.88-27.05Q286.03-27.05 286.93-26.78 287.83-26.5 287.83-26.45L287.83-26.45 287.83-18.1 284.63-18.1Q281.53-18.1 280.15-16.5 278.78-14.9 278.78-11.75L278.78-11.75 278.78 0 268.83 0 268.83-26.4 276.98-26.4 277.63-22.4Q278.53-24.7 280.48-25.88 282.43-27.05 284.88-27.05L284.88-27.05ZM302.63-16.3L311.08-26.4 322.68-26.4 312.93-15.75 322.93 0 311.63 0 306.08-9.05 302.63-5.7 302.63 0 292.68 0 292.68-36.3 302.63-36.3 302.63-16.3Z" opacity="1" transform="matrix(1,0,0,1,0,0)" fill="#085f63" class="wordmark-text-0" data-fill-palette-color="primary" id="text-0"></path></svg></g></svg></g><g transform="matrix(1,0,0,1,163.310208,56.13861386117318)"><svg viewBox="0 0 232.20979199999994 17.30905692350619" height="17.30905692350619" width="232.20979199999994"><g transform="matrix(1,0,0,1,0,0)"><svg width="232.20979199999994" viewBox="2.55 -34.45 627.12 46.75" height="17.30905692350619" data-palette-color="#49beb7"><path d="M15.95 0.6L15.95 0.6Q11.8 0.6 8.8-1.49 5.8-3.58 4.17-7.29 2.55-11 2.55-15.9L2.55-15.9Q2.55-21.13 4.31-24.7 6.08-28.28 9.11-30.11 12.15-31.95 15.95-31.95L15.95-31.95Q20.98-31.95 24.04-29.44 27.1-26.93 28.25-22.9L28.25-22.9 24.05-22.05Q23.08-24.98 20.94-26.71 18.8-28.45 15.95-28.45L15.95-28.45Q13.48-28.45 11.39-27.04 9.3-25.63 8.03-22.83 6.75-20.03 6.75-15.9L6.75-15.9Q6.75-12.15 7.76-9.22 8.78-6.3 10.81-4.63 12.85-2.95 15.95-2.95L15.95-2.95Q19.68-2.95 21.86-4.95 24.05-6.95 24.05-10.2L24.05-10.2 28.3-10.2Q28.3-6.83 26.75-4.41 25.2-2 22.41-0.7 19.63 0.6 15.95 0.6ZM44.35 0.6L44.35 0.6Q41.12 0.6 38.61-0.83 36.1-2.25 34.65-5.05 33.2-7.85 33.2-11.95L33.2-11.95Q33.2-16.07 34.65-18.86 36.1-21.65 38.61-23.08 41.12-24.5 44.35-24.5L44.35-24.5Q47.55-24.5 50.06-23.08 52.57-21.65 54.01-18.86 55.45-16.07 55.45-11.95L55.45-11.95Q55.45-7.85 54.01-5.05 52.57-2.25 50.06-0.83 47.55 0.6 44.35 0.6ZM44.25-2.8L44.25-2.8Q46.57-2.8 48.2-3.91 49.82-5.03 50.66-7.08 51.5-9.13 51.5-11.95L51.5-11.95Q51.5-16.23 49.72-18.69 47.95-21.15 44.45-21.15L44.45-21.15Q42.1-21.15 40.48-20.04 38.87-18.93 38.04-16.86 37.2-14.8 37.2-11.95L37.2-11.95Q37.2-7.73 38.98-5.26 40.77-2.8 44.25-2.8ZM100.52 0L96.62 0 96.62-14.05Q96.62-17.48 94.98-19.26 93.34-21.05 90.57-21.05L90.57-21.05Q87.32-21.05 85.59-18.54 83.87-16.03 83.87-11.6L83.87-11.6 82.07-11.6Q82.07-14.83 82.71-17.25 83.34-19.68 84.57-21.29 85.8-22.9 87.55-23.7 89.3-24.5 91.52-24.5L91.52-24.5Q94.34-24.5 96.36-23.24 98.37-21.98 99.45-19.63 100.52-17.28 100.52-14.05L100.52-14.05 100.52 0ZM66.92 0L63.02 0 63.02-23.9 66.37-23.9 66.82-19.1Q67.95-21.7 69.98-23.1 72.02-24.5 74.87-24.5L74.87-24.5Q77.7-24.5 79.71-23.24 81.72-21.98 82.8-19.63 83.87-17.28 83.87-14.05L83.87-14.05 83.87 0 80.02 0 80.02-14.05Q80.02-17.48 78.38-19.26 76.75-21.05 73.92-21.05L73.92-21.05Q71.77-21.05 70.2-19.88 68.62-18.7 67.77-16.51 66.92-14.33 66.92-11.3L66.92-11.3 66.92 0ZM147.29 0L143.39 0 143.39-14.05Q143.39-17.48 141.75-19.26 140.12-21.05 137.34-21.05L137.34-21.05Q134.09-21.05 132.37-18.54 130.64-16.03 130.64-11.6L130.64-11.6 128.84-11.6Q128.84-14.83 129.48-17.25 130.12-19.68 131.34-21.29 132.57-22.9 134.32-23.7 136.07-24.5 138.29-24.5L138.29-24.5Q141.12-24.5 143.13-23.24 145.14-21.98 146.22-19.63 147.29-17.28 147.29-14.05L147.29-14.05 147.29 0ZM113.69 0L109.79 0 109.79-23.9 113.14-23.9 113.59-19.1Q114.72-21.7 116.76-23.1 118.79-24.5 121.64-24.5L121.64-24.5Q124.47-24.5 126.48-23.24 128.49-21.98 129.57-19.63 130.64-17.28 130.64-14.05L130.64-14.05 130.64 0 126.79 0 126.79-14.05Q126.79-17.48 125.16-19.26 123.52-21.05 120.69-21.05L120.69-21.05Q118.54-21.05 116.97-19.88 115.39-18.7 114.54-16.51 113.69-14.33 113.69-11.3L113.69-11.3 113.69 0ZM172.82 0L172.82-23.95 176.72-23.95 176.72 0 172.82 0ZM155.87-8.75L155.87-23.95 159.77-23.95 159.77-9.05Q159.77-6.05 161.23-4.5 162.69-2.95 165.42-2.95L165.42-2.95Q167.67-2.95 169.33-4.15 170.99-5.35 171.9-7.46 172.82-9.58 172.82-12.3L172.82-12.3 174.27-12.3Q174.27-8.28 173.1-5.43 171.94-2.58 169.83-1.06 167.72 0.45 164.87 0.45L164.87 0.45Q162.17 0.45 160.14-0.55 158.12-1.55 156.99-3.59 155.87-5.63 155.87-8.75L155.87-8.75ZM207.69 0L203.84 0 203.84-14.05Q203.84-17.48 202.2-19.26 200.56-21.05 197.74-21.05L197.74-21.05Q195.59-21.05 194.01-19.88 192.44-18.7 191.59-16.51 190.74-14.33 190.74-11.3L190.74-11.3 189.24-11.3Q189.24-15.48 190.34-18.43 191.44-21.38 193.55-22.94 195.66-24.5 198.69-24.5L198.69-24.5Q201.51-24.5 203.53-23.24 205.54-21.98 206.61-19.63 207.69-17.28 207.69-14.05L207.69-14.05 207.69 0ZM190.74 0L186.84 0 186.84-23.9 190.19-23.9 190.74-18.4 190.74 0ZM219.21-29.55L219.21-29.55Q218.01-29.55 217.31-30.24 216.61-30.93 216.61-32.05L216.61-32.05Q216.61-33.15 217.31-33.8 218.01-34.45 219.21-34.45L219.21-34.45Q220.41-34.45 221.11-33.8 221.81-33.15 221.81-32.05L221.81-32.05Q221.81-30.93 221.11-30.24 220.41-29.55 219.21-29.55ZM221.16 0L217.26 0 217.26-23.95 221.16-23.95 221.16 0ZM239.26 0.6L239.26 0.6Q237.31 0.6 235.76-0.15 234.21-0.9 233.31-2.4 232.41-3.9 232.41-6.15L232.41-6.15 232.41-30.55 236.26-30.55 236.26-6.25Q236.26-2.55 239.71-2.55L239.71-2.55Q240.73-2.55 241.7-2.78 242.66-3 243.86-3.45L243.86-3.45 244.41-0.65Q243.13-0.1 241.87 0.25 240.61 0.6 239.26 0.6ZM243.81-21.2L228.56-21.2 228.56-23.9 243.81-23.9 243.81-21.2ZM256.56 0L246.76-23.9 251.11-23.9 258.91-3.4 258.01-3.4 264.06-23.9 268.06-23.9 259.06 4.8Q257.93 8.4 256.06 10.35 254.18 12.3 251.26 12.3L251.26 12.3Q249.68 12.3 248.27 11.85 246.86 11.4 245.36 10.55L245.36 10.55 245.36 6.95Q246.68 8 247.92 8.45 249.16 8.9 250.51 8.9L250.51 8.9Q252.01 8.9 253.02 7.95 254.03 7 254.71 5.51 255.38 4.03 255.86 2.4L255.86 2.4 256.56 0ZM294.4 0.6L294.4 0.6Q291.5 0.6 289.08-0.96 286.65-2.53 285.2-5.36 283.75-8.2 283.75-12.05L283.75-12.05Q283.75-15.88 285.18-18.68 286.6-21.48 288.96-22.99 291.33-24.5 294.15-24.5L294.15-24.5Q296.78-24.5 298.76-23.23 300.75-21.95 301.85-19.55 302.95-17.15 302.95-13.75L302.95-13.75 301.45-13.75Q301.45-16.13 300.51-17.75 299.58-19.38 298.08-20.21 296.58-21.05 294.85-21.05L294.85-21.05Q292.9-21.05 291.29-19.96 289.68-18.88 288.71-16.86 287.75-14.85 287.75-12.05L287.75-12.05Q287.75-9.2 288.71-7.15 289.68-5.1 291.29-4 292.9-2.9 294.85-2.9L294.85-2.9Q296.48-2.9 297.99-3.75 299.5-4.6 300.48-6.24 301.45-7.88 301.45-10.2L301.45-10.2 302.95-10.2Q302.95-6.73 301.81-4.31 300.68-1.9 298.74-0.65 296.8 0.6 294.4 0.6ZM305.35 0L302.1 0 301.45-5.6 301.45-34.1 305.35-34.1 305.35 0ZM324.12 0.6L324.12 0.6Q320.9 0.6 318.39-0.83 315.87-2.25 314.42-5.05 312.97-7.85 312.97-11.95L312.97-11.95Q312.97-16.07 314.42-18.86 315.87-21.65 318.39-23.08 320.9-24.5 324.12-24.5L324.12-24.5Q327.32-24.5 329.84-23.08 332.35-21.65 333.79-18.86 335.22-16.07 335.22-11.95L335.22-11.95Q335.22-7.85 333.79-5.05 332.35-2.25 329.84-0.83 327.32 0.6 324.12 0.6ZM324.02-2.8L324.02-2.8Q326.35-2.8 327.97-3.91 329.6-5.03 330.44-7.08 331.27-9.13 331.27-11.95L331.27-11.95Q331.27-16.23 329.5-18.69 327.72-21.15 324.22-21.15L324.22-21.15Q321.87-21.15 320.26-20.04 318.65-18.93 317.81-16.86 316.97-14.8 316.97-11.95L316.97-11.95Q316.97-7.73 318.76-5.26 320.55-2.8 324.02-2.8ZM351.2 0.6L351.2 0.6Q348.32 0.6 345.83-0.95 343.35-2.5 341.82-5.33 340.3-8.15 340.3-12L340.3-12Q340.3-15.95 341.82-18.75 343.35-21.55 345.83-23.03 348.32-24.5 351.2-24.5L351.2-24.5Q353.22-24.5 354.83-23.89 356.45-23.28 357.65-22.2 358.85-21.13 359.63-19.76 360.42-18.4 360.8-16.9L360.8-16.9 356.8-16.55Q356.17-18.63 354.71-19.84 353.25-21.05 351.15-21.05L351.15-21.05Q349.37-21.05 347.81-20.04 346.25-19.03 345.27-17.01 344.3-15 344.3-12L344.3-12Q344.3-9.22 345.18-7.19 346.07-5.15 347.62-4.03 349.17-2.9 351.15-2.9L351.15-2.9Q353.92-2.9 355.36-4.26 356.8-5.63 356.8-8.05L356.8-8.05 360.8-8.05Q360.8-5.55 359.62-3.6 358.45-1.65 356.28-0.53 354.12 0.6 351.2 0.6ZM384.84 0L384.84-23.95 388.74-23.95 388.74 0 384.84 0ZM367.89-8.75L367.89-23.95 371.79-23.95 371.79-9.05Q371.79-6.05 373.26-4.5 374.72-2.95 377.44-2.95L377.44-2.95Q379.69-2.95 381.36-4.15 383.02-5.35 383.93-7.46 384.84-9.58 384.84-12.3L384.84-12.3 386.29-12.3Q386.29-8.28 385.13-5.43 383.97-2.58 381.86-1.06 379.74 0.45 376.89 0.45L376.89 0.45Q374.19 0.45 372.17-0.55 370.14-1.55 369.02-3.59 367.89-5.63 367.89-8.75L367.89-8.75ZM436.37 0L432.47 0 432.47-14.05Q432.47-17.48 430.83-19.26 429.19-21.05 426.42-21.05L426.42-21.05Q423.17-21.05 421.44-18.54 419.72-16.03 419.72-11.6L419.72-11.6 417.92-11.6Q417.92-14.83 418.55-17.25 419.19-19.68 420.42-21.29 421.64-22.9 423.39-23.7 425.14-24.5 427.37-24.5L427.37-24.5Q430.19-24.5 432.2-23.24 434.22-21.98 435.29-19.63 436.37-17.28 436.37-14.05L436.37-14.05 436.37 0ZM402.77 0L398.87 0 398.87-23.9 402.22-23.9 402.67-19.1Q403.79-21.7 405.83-23.1 407.87-24.5 410.72-24.5L410.72-24.5Q413.54-24.5 415.55-23.24 417.57-21.98 418.64-19.63 419.72-17.28 419.72-14.05L419.72-14.05 419.72 0 415.87 0 415.87-14.05Q415.87-17.48 414.23-19.26 412.59-21.05 409.77-21.05L409.77-21.05Q407.62-21.05 406.04-19.88 404.47-18.7 403.62-16.51 402.77-14.33 402.77-11.3L402.77-11.3 402.77 0ZM453.94 0.6L453.94 0.6Q450.84 0.6 448.4-0.99 445.96-2.58 444.55-5.4 443.14-8.22 443.14-11.9L443.14-11.9Q443.14-15.83 444.54-18.65 445.94-21.48 448.38-22.99 450.81-24.5 453.94-24.5L453.94-24.5Q456.66-24.5 458.59-23.4 460.51-22.3 461.69-20.43 462.86-18.55 463.33-16.19 463.79-13.83 463.59-11.3L463.59-11.3 446.29-11.3 446.29-13.7 461.01-13.7 459.86-12.95Q459.94-14.43 459.7-15.9 459.46-17.38 458.81-18.61 458.16-19.85 456.99-20.6 455.81-21.35 453.99-21.35L453.99-21.35Q451.69-21.35 450.14-20.18 448.59-19 447.81-17.09 447.04-15.18 447.04-12.95L447.04-12.95 447.04-11.35Q447.04-8.85 447.8-6.88 448.56-4.9 450.09-3.75 451.61-2.6 453.94-2.6L453.94-2.6Q456.26-2.6 457.76-3.73 459.26-4.85 459.59-7.05L459.59-7.05 463.64-7.05Q463.26-4.67 461.94-2.96 460.61-1.25 458.56-0.33 456.51 0.6 453.94 0.6ZM492.16 0L488.31 0 488.31-14.05Q488.31-17.48 486.67-19.26 485.04-21.05 482.21-21.05L482.21-21.05Q480.06-21.05 478.49-19.88 476.91-18.7 476.06-16.51 475.21-14.33 475.21-11.3L475.21-11.3 473.71-11.3Q473.71-15.48 474.81-18.43 475.91-21.38 478.02-22.94 480.14-24.5 483.16-24.5L483.16-24.5Q485.99-24.5 488-23.24 490.01-21.98 491.09-19.63 492.16-17.28 492.16-14.05L492.16-14.05 492.16 0ZM475.21 0L471.31 0 471.31-23.9 474.66-23.9 475.21-18.4 475.21 0ZM508.83 0.6L508.83 0.6Q506.88 0.6 505.33-0.15 503.78-0.9 502.88-2.4 501.98-3.9 501.98-6.15L501.98-6.15 501.98-30.55 505.83-30.55 505.83-6.25Q505.83-2.55 509.28-2.55L509.28-2.55Q510.31-2.55 511.27-2.78 512.23-3 513.43-3.45L513.43-3.45 513.98-0.65Q512.71-0.1 511.45 0.25 510.18 0.6 508.83 0.6ZM513.38-21.2L498.13-21.2 498.13-23.9 513.38-23.9 513.38-21.2ZM538.48 0L535.08 0 534.58-5.25 534.58-15.5Q534.58-18.73 533.21-20.14 531.83-21.55 529.08-21.55L529.08-21.55Q527.53-21.55 526.27-21.1 525-20.65 524.27-19.71 523.53-18.78 523.53-17.3L523.53-17.3 519.18-17.3Q519.18-19.9 520.46-21.49 521.73-23.08 523.97-23.79 526.21-24.5 529.08-24.5L529.08-24.5Q531.83-24.5 533.96-23.58 536.08-22.65 537.28-20.64 538.48-18.63 538.48-15.4L538.48-15.4 538.48 0ZM526.93 0.6L526.93 0.6Q523.98 0.6 522.06-0.45 520.13-1.5 519.18-3.18 518.23-4.85 518.23-6.7L518.23-6.7Q518.23-9.13 519.44-10.65 520.65-12.18 522.75-12.89 524.86-13.6 527.48-13.6L527.48-13.6Q529.36-13.6 531.24-13.23 533.13-12.85 534.93-12.2L534.93-12.2 534.93-9.75Q533.43-10.35 531.54-10.7 529.65-11.05 528.08-11.05L528.08-11.05Q525.68-11.05 524.03-10.06 522.38-9.08 522.38-6.7L522.38-6.7Q522.38-4.95 523.64-3.7 524.9-2.45 527.68-2.45L527.68-2.45Q529.63-2.45 531.19-3.36 532.75-4.28 533.67-5.65 534.58-7.03 534.58-8.4L534.58-8.4 535.53-8.4Q535.53-6 534.49-3.95 533.46-1.9 531.53-0.65 529.61 0.6 526.93 0.6ZM555.15 0.6L555.15 0.6Q553.2 0.6 551.65-0.15 550.1-0.9 549.2-2.4 548.3-3.9 548.3-6.15L548.3-6.15 548.3-30.55 552.15-30.55 552.15-6.25Q552.15-2.55 555.6-2.55L555.6-2.55Q556.63-2.55 557.59-2.78 558.55-3 559.75-3.45L559.75-3.45 560.3-0.65Q559.03-0.1 557.76 0.25 556.5 0.6 555.15 0.6ZM559.7-21.2L544.45-21.2 544.45-23.9 559.7-23.9 559.7-21.2ZM568.8-29.55L568.8-29.55Q567.6-29.55 566.9-30.24 566.2-30.93 566.2-32.05L566.2-32.05Q566.2-33.15 566.9-33.8 567.6-34.45 568.8-34.45L568.8-34.45Q570-34.45 570.7-33.8 571.4-33.15 571.4-32.05L571.4-32.05Q571.4-30.93 570.7-30.24 570-29.55 568.8-29.55ZM570.75 0L566.85 0 566.85-23.95 570.75-23.95 570.75 0ZM590.15 0.6L590.15 0.6Q586.92 0.6 584.41-0.83 581.9-2.25 580.45-5.05 579-7.85 579-11.95L579-11.95Q579-16.07 580.45-18.86 581.9-21.65 584.41-23.08 586.92-24.5 590.15-24.5L590.15-24.5Q593.35-24.5 595.86-23.08 598.37-21.65 599.81-18.86 601.25-16.07 601.25-11.95L601.25-11.95Q601.25-7.85 599.81-5.05 598.37-2.25 595.86-0.83 593.35 0.6 590.15 0.6ZM590.05-2.8L590.05-2.8Q592.37-2.8 594-3.91 595.62-5.03 596.46-7.08 597.3-9.13 597.3-11.95L597.3-11.95Q597.3-16.23 595.52-18.69 593.75-21.15 590.25-21.15L590.25-21.15Q587.9-21.15 586.28-20.04 584.67-18.93 583.83-16.86 583-14.8 583-11.95L583-11.95Q583-7.73 584.78-5.26 586.57-2.8 590.05-2.8ZM629.67 0L625.82 0 625.82-14.05Q625.82-17.48 624.18-19.26 622.54-21.05 619.72-21.05L619.72-21.05Q617.57-21.05 615.99-19.88 614.42-18.7 613.57-16.51 612.72-14.33 612.72-11.3L612.72-11.3 611.22-11.3Q611.22-15.48 612.32-18.43 613.42-21.38 615.53-22.94 617.64-24.5 620.67-24.5L620.67-24.5Q623.49-24.5 625.51-23.24 627.52-21.98 628.59-19.63 629.67-17.28 629.67-14.05L629.67-14.05 629.67 0ZM612.72 0L608.82 0 608.82-23.9 612.17-23.9 612.72-18.4 612.72 0Z" opacity="1" transform="matrix(1,0,0,1,0,0)" fill="#49beb7" class="slogan-text-1" data-fill-palette-color="secondary" id="text-1"></path></svg></g></svg></g></svg></g></svg></g><g transform="matrix(1,0,0,1,406.2418159772459,0)"><svg viewBox="0 0 101.50468102442689 101.50468102442689" height="101.50468102442689" width="101.50468102442689"><g data-palette-color="#49beb7"><rect width="27.74461281334335" height="101.50468102442689" fill="#49beb7" stroke="transparent" data-fill-palette-color="accent" x="0" fill-opacity="1"></rect><rect width="27.74461281334335" height="101.50468102442689" fill="#49beb7" stroke="transparent" data-fill-palette-color="accent" x="33.83489367480896" fill-opacity="0.75"></rect><rect width="27.74461281334335" height="101.50468102442689" fill="#49beb7" stroke="transparent" data-fill-palette-color="accent" x="67.66978734961792" fill-opacity="0.5"></rect></g></svg></g></svg></g><defs></defs></svg><rect width="395.5199999999999" height="79.06924356121958" fill="none" stroke="none" visibility="hidden"></rect></g></svg></g></svg>