<svg xmlns="http://www.w3.org/2000/svg" version="1.1" xmlns:xlink="http://www.w3.org/1999/xlink" xmlns:svgjs="http://svgjs.dev/svgjs" width="1500" height="382" viewBox="0 0 1500 382"><g transform="matrix(1,0,0,1,-0.9090909090909918,-0.4457889856560655)"><svg viewBox="0 0 396 101" data-background-color="#ffffff" preserveAspectRatio="xMidYMid meet" height="382" width="1500" xmlns="http://www.w3.org/2000/svg" xmlns:xlink="http://www.w3.org/1999/xlink"><g id="tight-bounds" transform="matrix(1,0,0,1,0.2400000000000091,0.1178656742179669)"><svg viewBox="0 0 395.52 100.76388399382027" height="100.76388399382027" width="395.52"><g><svg viewBox="0 0 395.52 100.76388399382027" height="100.76388399382027" width="395.52"><g><svg viewBox="0 0 395.52 100.76388399382027" height="100.76388399382027" width="395.52"><g id="textblocktransform"><svg viewBox="0 0 395.52 100.76388399382027" height="100.76388399382027" width="395.52" id="textblock"><g><svg viewBox="0 0 395.52 37.20761759082218" height="37.20761759082218" width="395.52"><g transform="matrix(1,0,0,1,0,0)"><svg width="395.52" viewBox="1.6 -36.3 392.21999999999997 36.9" height="37.20761759082218" data-palette-color="#25c2a0"><path d="M15.55-27Q20.85-27 24.53-24.93 28.2-22.85 28.2-18.5L28.2-18.5 18.95-18.5Q18.95-19.95 17.65-20.55L17.65-20.55Q16.75-21.05 15.4-21.05L15.4-21.05Q11.8-21.05 11.8-19.35L11.8-19.35Q11.8-18.4 13.05-18 14.3-17.6 17.15-17.15L17.15-17.15Q20.65-16.65 23-15.98 25.35-15.3 27.1-13.58 28.85-11.85 28.85-8.75L28.85-8.75Q28.85-3.7 25.08-1.55 21.3 0.6 15.2 0.6L15.2 0.6Q11.7 0.6 8.6-0.38 5.5-1.35 3.55-3.4 1.6-5.45 1.6-8.6L1.6-8.6 10.85-8.6 10.85-8.4Q10.9-6.7 12.28-6.03 13.65-5.35 15.2-5.35L15.2-5.35Q19.35-5.35 19.35-7.3L19.35-7.3Q19.35-8.3 18.05-8.75 16.75-9.2 13.8-9.7L13.8-9.7Q10.25-10.3 7.98-11 5.7-11.7 4-13.38 2.3-15.05 2.3-18.05L2.3-18.05Q2.3-22.9 5.98-24.95 9.65-27 15.55-27L15.55-27ZM60.85 0L52.7 0 52.05-4Q50.5-1.85 47.97-0.63 45.45 0.6 42.65 0.6L42.65 0.6Q38.05 0.6 35.75-1.95 33.45-4.5 33.45-9.3L33.45-9.3 33.45-26.4 43.4-26.4 43.4-10.5Q43.4-8.8 44.27-7.78 45.15-6.75 46.75-6.75L46.75-6.75Q48.6-6.75 49.75-7.95 50.9-9.15 50.9-10.9L50.9-10.9 50.9-26.4 60.85-26.4 60.85 0ZM76.9-23.95Q79.75-27 84.3-27L84.3-27Q89.65-27 92.55-23.53 95.45-20.05 95.45-13.25L95.45-13.25Q95.45-6.4 92.55-2.9 89.65 0.6 84.3 0.6L84.3 0.6Q78.8 0.6 75.9-3.75L75.9-3.75 75.05 0 66.95 0 66.95-36.25 76.9-36.25 76.9-23.95ZM81.2-19.65Q79-19.65 77.9-18.07 76.8-16.5 76.8-14L76.8-14 76.8-12.35Q76.8-9.85 77.9-8.3 79-6.75 81.2-6.75L81.2-6.75Q85.5-6.75 85.5-11.85L85.5-11.85 85.5-14.5Q85.5-19.65 81.2-19.65L81.2-19.65ZM118.44-27Q123.04-27 125.34-24.45 127.64-21.9 127.64-17.1L127.64-17.1 127.64 0 117.69 0 117.69-15.9Q117.69-17.6 116.82-18.63 115.94-19.65 114.34-19.65L114.34-19.65Q112.49-19.65 111.34-18.45 110.19-17.25 110.19-15.5L110.19-15.5 110.19 0 100.24 0 100.24-26.4 108.39-26.4 109.04-22.4Q110.59-24.5 113.12-25.75 115.64-27 118.44-27L118.44-27ZM147.24-27Q154.49-27 158.31-23.6 162.14-20.2 162.14-13.2L162.14-13.2 162.14-11.5 142.34-11.5Q142.34-8.65 143.62-7.2 144.89-5.75 147.64-5.75L147.64-5.75Q150.14-5.75 151.31-6.8 152.49-7.85 152.49-9.6L152.49-9.6 162.14-9.6Q162.14-4.8 158.49-2.1 154.84 0.6 147.84 0.6L147.84 0.6Q140.49 0.6 136.44-2.83 132.39-6.25 132.39-13.2L132.39-13.2Q132.39-20 136.34-23.5 140.29-27 147.24-27L147.24-27ZM147.64-20.65Q142.94-20.65 142.39-16.2L142.39-16.2 152.09-16.2Q152.09-18.25 150.92-19.45 149.74-20.65 147.64-20.65L147.64-20.65ZM178.94-26.4L184.54-26.4 184.54-19.65 178.94-19.65 178.94-9.6Q178.94-7.8 179.54-6.98 180.14-6.15 181.74-6.15L181.74-6.15 184.54-6.15 184.54-0.3Q183.34 0.1 181.44 0.35 179.54 0.6 178.14 0.6L178.14 0.6Q173.74 0.6 171.36-1 168.99-2.6 168.99-6.45L168.99-6.45 168.99-19.65 165.29-19.65 165.29-26.4 169.39-26.4 171.54-34.4 178.94-34.4 178.94-26.4ZM223.63 0L213.94 0 209.83-14.7 209.63-14.7 205.48 0 195.78 0 186.13-26.4 196.83-26.4 200.83-10.8 201.19-10.8 205.33-26.4 215.23-26.4 219.23-10.8 219.58-10.8 223.63-26.4 233.33-26.4 223.63 0ZM249.13-27Q256.08-27 260.06-23.48 264.03-19.95 264.03-13.2L264.03-13.2Q264.03-6.45 260.06-2.93 256.08 0.6 249.13 0.6L249.13 0.6Q242.18 0.6 238.23-2.9 234.28-6.4 234.28-13.2L234.28-13.2Q234.28-20 238.23-23.5 242.18-27 249.13-27L249.13-27ZM249.13-20.25Q244.23-20.25 244.23-14.6L244.23-14.6 244.23-11.75Q244.23-6.15 249.13-6.15L249.13-6.15Q254.08-6.15 254.08-11.75L254.08-11.75 254.08-14.6Q254.08-20.25 249.13-20.25L249.13-20.25ZM284.88-27.05Q286.03-27.05 286.93-26.78 287.83-26.5 287.83-26.45L287.83-26.45 287.83-18.1 284.63-18.1Q281.53-18.1 280.15-16.5 278.78-14.9 278.78-11.75L278.78-11.75 278.78 0 268.83 0 268.83-26.4 276.98-26.4 277.63-22.4Q278.53-24.7 280.48-25.88 282.43-27.05 284.88-27.05L284.88-27.05ZM302.63-16.3L311.08-26.4 322.68-26.4 312.93-15.75 322.93 0 311.63 0 306.08-9.05 302.63-5.7 302.63 0 292.68 0 292.68-36.3 302.63-36.3 302.63-16.3ZM336.67 0L326.07 0 326.07-9.95 336.67-9.95 336.67 0ZM358.72-27.05Q359.87-27.05 360.77-26.78 361.67-26.5 361.67-26.45L361.67-26.45 361.67-18.1 358.47-18.1Q355.37-18.1 354-16.5 352.62-14.9 352.62-11.75L352.62-11.75 352.62 0 342.67 0 342.67-26.4 350.82-26.4 351.47-22.4Q352.37-24.7 354.32-25.88 356.27-27.05 358.72-27.05L358.72-27.05ZM393.82 0L385.67 0 385.02-4Q383.47-1.85 380.94-0.63 378.42 0.6 375.62 0.6L375.62 0.6Q371.02 0.6 368.72-1.95 366.42-4.5 366.42-9.3L366.42-9.3 366.42-26.4 376.37-26.4 376.37-10.5Q376.37-8.8 377.24-7.78 378.12-6.75 379.72-6.75L379.72-6.75Q381.57-6.75 382.72-7.95 383.87-9.15 383.87-10.9L383.87-10.9 383.87-26.4 393.82-26.4 393.82 0Z" opacity="1" transform="matrix(1,0,0,1,0,0)" fill="#25c2a0" class="wordmark-text-0" data-fill-palette-color="primary" id="text-0"></path></svg></g></svg></g><g transform="matrix(1,0,0,1,0,54.775268651564055)"><svg viewBox="0 0 395.52 45.98861534225622" height="45.98861534225622" width="395.52"><path d="M395.52 0l-7.665 22.994 7.665 22.995h-395.52l7.665-22.995-7.665-22.994z" data-fill-palette-color="tertiary" opacity="1" fill="#25c2a0"></path><g transform="matrix(1,0,0,1,156.37326734188238,8.783825530370937)"><svg width="82.77346531623522" viewBox="3.85 -33.7 99.74000000000001 34.25" height="28.420964281514344" data-palette-color="#ffffff"><path d="M14.05 0L14.05 0 3.85 0 3.85-33.7 13.85-33.7Q21.3-33.7 26.08-29.08 30.85-24.45 30.85-17.1L30.85-17.1Q30.85-9.8 26.43-4.9 22 0 14.05 0ZM13.8-30.1L13.8-30.1 7.95-30.1 7.95-3.55 14-3.55Q20.25-3.55 23.45-7.43 26.65-11.3 26.65-17.1L26.65-17.1Q26.65-22.6 23.08-26.35 19.5-30.1 13.8-30.1ZM59-12.6L59-12.6Q59-6.95 55.8-3.25 52.6 0.45 47 0.45L47 0.45Q41.55 0.45 38.37-3.23 35.2-6.9 35.2-12.5L35.2-12.5Q35.2-18.15 38.47-21.93 41.75-25.7 47-25.7L47-25.7Q52.75-25.7 55.87-22 59-18.3 59-12.6ZM39.3-12.55L39.3-12.55Q39.3-8.6 41.4-5.83 43.5-3.05 47-3.05L47-3.05Q50.8-3.05 52.85-5.78 54.9-8.5 54.9-12.55L54.9-12.55Q54.9-16.75 52.95-19.48 51-22.2 47-22.2L47-22.2Q43.4-22.2 41.35-19.4 39.3-16.6 39.3-12.55ZM82.25-4.65L82.25-0.9Q79.85 0.55 76.35 0.55L76.35 0.55Q70.35 0.55 66.82-3.28 63.3-7.1 63.3-12.6L63.3-12.6Q63.3-18 66.82-21.9 70.35-25.8 76.45-25.8L76.45-25.8Q79.7-25.8 82.25-24.4L82.25-24.4 82.25-20.65Q79.95-22.2 76.85-22.2L76.85-22.2Q72.55-22.2 69.97-19.43 67.4-16.65 67.4-12.55L67.4-12.55Q67.45-8.45 69.9-5.73 72.35-3 76.85-3L76.85-3Q79.75-3 82.25-4.65L82.25-4.65ZM103.59-6.75L103.59-6.75Q103.59-3.5 101.32-1.6 99.04 0.3 95.09 0.3L95.09 0.3Q90.49 0.3 87.64-1.25L87.64-1.25 87.64-5.1Q90.99-3.1 94.84-3.1L94.84-3.1Q97.14-3.1 98.34-4 99.54-4.9 99.54-6.45L99.54-6.45Q99.54-8.25 98.22-9.25 96.89-10.25 93.79-11.5L93.79-11.5Q90.94-12.6 89.22-14.25 87.49-15.9 87.49-18.7L87.49-18.7Q87.49-21.85 89.87-23.73 92.24-25.6 95.79-25.6L95.79-25.6Q99.74-25.6 102.14-24.5L102.14-24.5 102.14-20.75Q99.84-22.15 95.84-22.15L95.84-22.15Q93.84-22.15 92.67-21.23 91.49-20.3 91.49-18.85L91.49-18.85Q91.49-17.95 91.84-17.28 92.19-16.6 93.22-15.95 94.24-15.3 94.72-15.08 95.19-14.85 96.79-14.15L96.79-14.15Q99.99-12.85 101.79-11.2 103.59-9.55 103.59-6.75Z" opacity="1" transform="matrix(1,0,0,1,0,0)" fill="#ffffff" class="slogan-text-1" data-fill-palette-color="quaternary" id="text-1"></path></svg></g></svg></g></svg></g></svg></g></svg></g><defs></defs></svg><rect width="395.52" height="100.76388399382027" fill="none" stroke="none" visibility="hidden"></rect></g></svg></g></svg>