<svg xmlns="http://www.w3.org/2000/svg" data-name="Layer 1" viewBox="0 0 3600 1783.45" id="Searchengine"><path fill="#b6e0d7" d="M2703.84 604.85C2695 425.35 2546.71 282.53 2365 282.53a338.38 338.38 0 0 0-253.56 113.9c-138.86-83.7-301.55-131.87-475.51-131.87-509.55 0-922.59 413-922.59 922.55v3.15a464.72 464.72 0 0 0-77.52-6.51c-255.69 0-463 207.3-463 463A460.84 460.84 0 0 0 238.26 1884h2872.92c135.09-136.92 218.49-325 218.49-532.5 0-373.58-270.2-684.04-625.83-746.65Z" transform="translate(0 -100.55)" class="colore0cdb6 svgShape"></path><path fill="#9dcfc4" d="m1080.05 1226.33 11.11-5.6c-1.47-2.91-149.85-293.46-412.21-476.23l-7.11 10.21c259.81 180.99 406.76 468.73 408.21 471.62Z" transform="translate(0 -100.55)" class="colorcfb89d svgShape"></path><path fill="#9dcfc4" d="M627.24 692.46c41.18 29.69 64 68.43 64 68.43s-44-9.39-85.15-39.07-64-68.43-64-68.43 43.97 9.39 85.15 39.07ZM732.52 697.34c8.1 50.12-3.2 93.63-3.2 93.63s-24.43-37.74-32.52-87.86 3.2-93.63 3.2-93.63 24.42 37.74 32.52 87.86ZM645 833c-48.05 16.38-92.84 12.54-92.84 12.54s33.11-30.41 81.16-46.79 92.84-12.54 92.84-12.54S693 816.65 645 833ZM717.48 901.29c-41.27 29.56-85.26 38.82-85.26 38.82s22.92-38.68 64.19-68.24S781.67 833 781.67 833s-22.92 38.72-64.19 68.29ZM788.24 969.58c-43.72 25.81-88.36 31.14-88.36 31.14s26.24-36.5 70-62.31 88.36-31.14 88.36-31.14-26.24 36.5-70 62.31ZM850.87 1039.57c-44.62 24.21-89.42 27.93-89.42 27.93s27.55-35.5 72.16-59.74S923 979.83 923 979.83s-27.51 35.53-72.13 59.74ZM915.12 1130c-41.27 29.56-85.26 38.82-85.26 38.82s22.92-38.68 64.19-68.24 85.26-38.82 85.26-38.82-22.92 38.66-64.19 68.24ZM823.31 753.63C811.86 803.09 785 839.11 785 839.11s-8.35-44.17 3.1-93.63S826.41 660 826.41 660s8.35 44.17-3.1 93.63Z" transform="translate(0 -100.55)" class="colorcfb89d svgShape"></path><path fill="#9dcfc4" d="M990.49 918.78c-30.28 40.75-69.35 63-69.35 63s10-43.82 40.31-84.57 69.35-63 69.35-63-10.03 43.79-40.31 84.57ZM1064.84 1018.78c-39.51 31.88-82.9 43.64-82.9 43.64s20.67-39.92 60.18-71.8S1125 947 1125 947s-20.65 39.9-60.16 71.78ZM909.6 833.23c-18.86 47.13-50.94 78.62-50.94 78.62s-1.51-44.93 17.35-92.07 50.94-78.62 50.94-78.62 1.51 44.93-17.35 92.07ZM932.8 1361.47l6.48-6.54c-1.72-1.7-174.16-170.76-401.27-237.37l-2.59 8.84c224.9 65.96 395.68 233.38 397.38 235.07Z" transform="translate(0 -100.55)" class="colorcfb89d svgShape"></path><path fill="#9dcfc4" d="M489.49 1093.18a187.62 187.62 0 0 1 61 33 179.53 179.53 0 0 1-129.95-40.4 187.63 187.63 0 0 1 68.95 7.4ZM564.53 1071.86a187.62 187.62 0 0 1 19.76 66.47A179.53 179.53 0 0 1 521 1017.84a187.62 187.62 0 0 1 43.53 54.02ZM535 1187.68a187.62 187.62 0 0 1-62.22 30.63 179.53 179.53 0 0 1 108.19-82.55 187.62 187.62 0 0 1-45.97 51.92ZM601.91 1218.55a187.62 187.62 0 0 1-50.72 47.29 179.53 179.53 0 0 1 79.73-110.27 187.62 187.62 0 0 1-29.01 62.98ZM667.63 1249.85a187.62 187.62 0 0 1-54.7 42.63 179.53 179.53 0 0 1 89.16-102.8 187.62 187.62 0 0 1-34.46 60.17ZM728 1284.25a187.62 187.62 0 0 1-56.2 40.63 179.53 179.53 0 0 1 92.81-99.52 187.62 187.62 0 0 1-36.61 58.89ZM794.39 1332.61a187.62 187.62 0 0 1-50.72 47.29 179.53 179.53 0 0 1 79.73-110.27 187.62 187.62 0 0 1-29.01 62.98ZM641.49 1090a187.62 187.62 0 0 1-6.83 69 179.53 179.53 0 0 1-13-135.46 187.62 187.62 0 0 1 19.83 66.46Z" transform="translate(0 -100.55)" class="colorcfb89d svgShape"></path><path fill="#9dcfc4" d="M797.64 1166.65a187.62 187.62 0 0 1-33.87 60.51 179.53 179.53 0 0 1 42.29-129.34 187.62 187.62 0 0 1-8.42 68.83ZM873.33 1219.36a187.62 187.62 0 0 1-47.93 50.12 179.53 179.53 0 0 1 73.29-114.66 187.62 187.62 0 0 1-25.36 64.54ZM720.76 1125.62a187.62 187.62 0 0 1-17.28 67.16 179.53 179.53 0 0 1 7.81-135.86 187.62 187.62 0 0 1 9.47 68.7Z" transform="translate(0 -100.55)" class="colorcfb89d svgShape"></path><path fill="none" stroke="#2b6e5f" stroke-miterlimit="10" stroke-width="8.49" d="M2273.35 529s89.32-173.55 236.65-274.32" transform="translate(0 -100.55)" class="colorStroke2b596e svgStroke"></path><circle cx="2518.34" cy="251.28" r="20.99" fill="#2b6e5f" transform="rotate(-63.13 2436.505 201.017)" class="color2b596e svgShape"></circle><circle cx="2450.82" cy="205.75" r="20.99" fill="#2b6e5f" transform="rotate(-63.13 2368.978 155.484)" class="color2b596e svgShape"></circle><circle cx="2482.79" cy="389.39" r="20.99" fill="#2b6e5f" transform="rotate(-63.13 2400.942 339.117)" class="color2b596e svgShape"></circle><path fill="none" stroke="#2b6e5f" stroke-miterlimit="10" stroke-width="8.49" d="M2428.18 322.51s22-53.93 22.81-105.35M2381.26 372.8s39.93-5.46 92.14 11.83M2245.55 537.9s-4.46-195.15 76.79-354.05" transform="translate(0 -100.55)" class="colorStroke2b596e svgStroke"></path><circle cx="2328.08" cy="176.86" r="20.99" fill="#2b6e5f" transform="rotate(-1.67 -1121.499 126.4)" class="color2b596e svgShape"></circle><circle cx="2247.01" cy="169.12" r="20.99" fill="#2b6e5f" transform="rotate(-1.67 -1202.71 118.696)" class="color2b596e svgShape"></circle><circle cx="2362.83" cy="315.17" r="20.99" fill="#2b6e5f" transform="rotate(-1.67 -1086.8 264.847)" class="color2b596e svgShape"></circle><path fill="none" stroke="#2b6e5f" stroke-miterlimit="10" stroke-width="8.49" d="M2282.9 282.51s-6.43-57.9-30.3-103.45M2265.71 349.11s32.47-23.87 86.6-33.63" transform="translate(0 -100.55)" class="colorStroke2b596e svgStroke"></path><path fill="#5c7872" d="M2638.1 1668.12H961.9a56.09 56.09 0 1 1 0-112.18h1676.2a56.09 56.09 0 1 1 0 112.18Z" transform="translate(0 -100.55)" class="color786b5c svgShape"></path><path fill="#ffffff" d="M339.71 489.1H0V275.22A302.43 302.43 0 0 1 50.43 271a299.65 299.65 0 0 1 118 24 301.54 301.54 0 0 1 171.28 194.1ZM839.65 271c-137.44 0-253.35 92.18-289.29 218.09h578.57C1093 363.19 977.09 271 839.65 271Z" transform="translate(0 -100.55)" class="colorffffff svgShape"></path><path fill="#ffffff" d="M463.65 177.58c-196.32 0-361.88 131.67-413.21 311.51h826.42C825.53 309.25 660 177.58 463.65 177.58Z" transform="translate(0 -100.55)" class="colorffffff svgShape"></path><path fill="#9dcfc4" d="M707.24 1344.63c-133.18 0-245.49 89.32-280.31 211.32h560.62c-34.82-122-147.13-211.32-280.31-211.32ZM1472 1344.63c-133.18 0-245.49 89.32-280.31 211.32h560.61c-34.85-122-147.16-211.32-280.3-211.32Z" transform="translate(0 -100.55)" class="colorcfb89d svgShape"></path><path fill="#9dcfc4" d="M1107.63 1254.1c-190.23 0-350.65 127.58-400.39 301.84H1508c-49.72-174.26-210.14-301.84-400.37-301.84Z" transform="translate(0 -100.55)" class="colorcfb89d svgShape"></path><path fill="#aac2bd" d="M297.82 442.73a133.12 133.12 0 0 0-128 96.47h255.97a133.12 133.12 0 0 0-127.97-96.47ZM646.94 442.73A133.12 133.12 0 0 0 519 539.2h255.91a133.12 133.12 0 0 0-127.97-96.47Z" transform="translate(0 -100.55)" class="coloracaac2 svgShape"></path><path fill="#aac2bd" d="M480.61 401.4a190.15 190.15 0 0 0-182.79 137.8h365.59a190.15 190.15 0 0 0-182.8-137.8Z" transform="translate(0 -100.55)" class="coloracaac2 svgShape"></path><path fill="#ffffff" d="M1842 126.49a83.56 83.56 0 0 0-80.32 60.51h160.65a83.56 83.56 0 0 0-80.33-60.51ZM2061.16 126.49a83.56 83.56 0 0 0-80.33 60.51h160.65a83.56 83.56 0 0 0-80.32-60.51Z" transform="translate(0 -100.55)" class="colorffffff svgShape"></path><path fill="#ffffff" d="M1956.75 100.55A119.36 119.36 0 0 0 1842 187h229.48a119.36 119.36 0 0 0-114.73-86.45Z" transform="translate(0 -100.55)" class="colorffffff svgShape"></path><path fill="#bcd6d0" d="M2855.49 534c-111.59 0-205.69 74.84-234.86 177.06h469.73C3061.18 608.88 2967.07 534 2855.49 534ZM3600 545.31v165.77h-308.43A244.51 244.51 0 0 1 3600 545.31Z" transform="translate(0 -100.55)" class="colorbebcd6 svgShape"></path><path fill="#bcd6d0" d="M3191 458.19c-159.39 0-293.8 106.9-335.48 252.91h671c-41.75-146.01-176.17-252.91-335.52-252.91Z" transform="translate(0 -100.55)" class="colorbebcd6 svgShape"></path><path fill="#ffffff" d="M2978.72 684.55a128.19 128.19 0 0 0-123.23 92.9h246.46a128.19 128.19 0 0 0-123.23-92.9ZM3314.9 684.55a128.19 128.19 0 0 0-123.23 92.9h246.46a128.19 128.19 0 0 0-123.23-92.9Z" transform="translate(0 -100.55)" class="colorffffff svgShape"></path><path fill="#ffffff" d="M3154.74 644.75a183.11 183.11 0 0 0-176 132.7h352a183.11 183.11 0 0 0-176-132.7Z" transform="translate(0 -100.55)" class="colorffffff svgShape"></path><path fill="#7affe2" d="M785.71 1497.19a128.19 128.19 0 0 0-123.23 92.9h246.46a128.19 128.19 0 0 0-123.23-92.9ZM1121.9 1497.19a128.19 128.19 0 0 0-123.23 92.9h246.46a128.19 128.19 0 0 0-123.23-92.9Z" transform="translate(0 -100.55)" class="colorff817a svgShape"></path><path fill="#7affe2" d="M961.73 1457.4a183.11 183.11 0 0 0-176 132.7h352a183.11 183.11 0 0 0-176-132.7Z" transform="translate(0 -100.55)" class="colorff817a svgShape"></path><path fill="#293b37" d="M2573.62 502.68a44.49 44.49 0 0 0-44.49-44.49H1070.87a44.49 44.49 0 0 0-44.49 44.49v74.87h1547.24Z" transform="translate(0 -100.55)" class="color292b3b svgShape"></path><path fill="#ffffff" d="M1026.38 577.55v785.39a44.49 44.49 0 0 0 44.49 44.49h1458.26a44.49 44.49 0 0 0 44.49-44.49V577.55Z" transform="translate(0 -100.55)" class="colorffffff svgShape"></path><path fill="#42f4cd" d="m1564.32 913.58 5.07-11.37c6.3 5.07 16.32 8.67 26 8.67 12.27 0 17.45-4.39 17.45-10.24 0-17-46.83-5.85-46.83-35.12 0-12.72 10.13-23.52 31.74-23.52 9.45 0 19.36 2.48 26.23 7l-4.62 11.37a43.79 43.79 0 0 0-21.73-6.19c-12.16 0-17.11 4.73-17.11 10.69 0 16.77 46.71 5.85 46.71 34.78 0 12.61-10.24 23.41-31.86 23.41-12.25-.06-24.52-3.85-31.05-9.48Z" transform="translate(0 -100.55)" class="color4285f4 svgShape"></path><path fill="#35eac3" d="M1700.87 909.64v12.27h-59.1v-78.79h57.52v12.27h-42.89v20.49h38v12h-38v21.72Z" transform="translate(0 -100.55)" class="colorea4335 svgShape"></path><path fill="#05fbc6" d="M1768.31 903.68h-39.4l-7.77 18.23h-15.08l35.46-78.79h14.41l35.57 78.79h-15.31Zm-4.84-11.48-14.86-34.44-14.75 34.44Z" transform="translate(0 -100.55)" class="colorfbbc05 svgShape"></path><path fill="#42f4cd" d="M1853.08 921.91 1837 898.84a27.5 27.5 0 0 1-3 .11h-17.78v23h-14.63v-78.83h32.42c20.71 0 33.55 10.58 33.55 28 0 11.93-6.08 20.71-16.77 24.88l18.12 25.89Zm-19.81-66.41h-17.11v31.41h17.11c12.83 0 19.47-5.85 19.47-15.76s-6.64-15.65-19.47-15.65Z" transform="translate(0 -100.55)" class="color4285f4 svgShape"></path><path fill="#34a88f" d="M1878.19 882.52c0-23.52 18-40.52 42.21-40.52 12.83 0 23.86 4.62 31.18 13.17l-9.46 8.89a27.68 27.68 0 0 0-21.05-9.23c-16.32 0-28.14 11.48-28.14 27.69s11.82 27.69 28.14 27.69a27.4 27.4 0 0 0 21.05-9.34l9.46 9c-7.32 8.55-18.35 13.17-31.29 13.17-24.09-.04-42.1-17.04-42.1-40.52Z" transform="translate(0 -100.55)" class="color34a853 svgShape"></path><path fill="#35eac3" d="M2035.68 843.12v78.79H2021v-33.77h-40.7v33.77h-14.63v-78.79h14.63v32.53h40.7v-32.53Z" transform="translate(0 -100.55)" class="colorea4335 svgShape"></path><rect width="882.19" height="84.63" x="1374.79" y="870" fill="#e6e6e6" rx="24.43" ry="24.43" class="colore6e6e6 svgShape"></rect><circle cx="1094.64" cy="417.32" r="15.4" fill="#7affe2" class="colorff817a svgShape"></circle><circle cx="1155.7" cy="417.32" r="15.4" fill="#abc9c2" class="coloradabc9 svgShape"></circle><circle cx="1216.76" cy="417.32" r="15.4" fill="#b6e0d7" class="colore0cdb6 svgShape"></circle><path fill="#96ffe8" d="M3036.09 1696.26c-139.09 46.34-282.86-9.18-282.86-9.18l503.69-167.82s-81.74 130.66-220.83 177Z" transform="translate(0 -100.55)" class="colorff9b96 svgShape"></path><path fill="#adffed" d="m3256.92 1519.26-503.69 167.82s81.74-130.66 220.83-177 282.86 9.18 282.86 9.18Z" transform="translate(0 -100.55)" class="colorffb1ad svgShape"></path><path fill="#96ffe8" d="M2990.43 1533.06C2903.5 1651.11 2754 1688.63 2754 1688.63l314.81-427.5s8.55 153.87-78.38 271.93Z" transform="translate(0 -100.55)" class="colorff9b96 svgShape"></path><path fill="#adffed" d="M3068.83 1261.13 2754 1688.63s-8.54-153.88 78.4-271.93 236.43-155.57 236.43-155.57Z" transform="translate(0 -100.55)" class="colorffb1ad svgShape"></path><path fill="none" stroke="#3b544f" stroke-linecap="round" stroke-linejoin="round" stroke-width="15" d="M2645.61 1554.7v-319.27M2645.61 1361.56l52.88-52.87M2645.61 1417.6l-54.8-54.81" class="colorStroke3b3e54 svgStroke"></path><path fill="#2f806e" d="M2645.61 1167.24v250.22s52.2-56 52.2-125.11-52.2-125.11-52.2-125.11Z" transform="translate(0 -100.55)" class="color2f7d80 svgShape"></path><path fill="#25c2a0" d="M2593.41 1292.36c0 69.1 52.2 125.11 52.2 125.11v-250.23s-52.2 56.02-52.2 125.12Z" transform="translate(0 -100.55)" class="color369094 svgShape"></path><path fill="#2f806e" d="m2828 1280.22-148.34 148.34s64.15-2.26 105.12-43.22 43.22-105.12 43.22-105.12Z" transform="translate(0 -100.55)" class="color2f7d80 svgShape"></path><path fill="#25c2a0" d="M2722.84 1323.44c-41 41-43.22 105.11-43.22 105.11L2828 1280.22s-64.2 2.26-105.16 43.22Z" transform="translate(0 -100.55)" class="color369094 svgShape"></path><path fill="#2f806e" d="m2602.35 1474.88-171-171s2.61 74 49.84 121.2 121.16 49.8 121.16 49.8Z" transform="translate(0 -100.55)" class="color2f7d80 svgShape"></path><path fill="#25c2a0" d="M2552.51 1353.67c-47.23-47.23-121.2-49.84-121.2-49.84l171 171s-2.57-73.92-49.8-121.16Z" transform="translate(0 -100.55)" class="color369094 svgShape"></path><path fill="none" stroke="#3b544f" stroke-linecap="round" stroke-linejoin="round" stroke-width="15" d="m2645.61 1463.65 26.22-26.22" class="colorStroke3b3e54 svgStroke"></path><path fill="#aac2bd" d="M2503.91 1641a130.78 130.78 0 0 0-125.72 94.78h251.44a130.78 130.78 0 0 0-125.72-94.78Z" transform="translate(0 -100.55)" class="coloracaac2 svgShape"></path><path fill="#aac2bd" d="M2683.49 1600.43a186.81 186.81 0 0 0-179.58 135.38h359.15a186.81 186.81 0 0 0-179.57-135.38Z" transform="translate(0 -100.55)" class="coloracaac2 svgShape"></path><rect width="84.01" height="112.4" x="1268.36" y="1031.82" fill="#3f7065" rx="3.93" ry="3.93" transform="rotate(-29.59 1120.204 1037.841)" class="color413f70 svgShape"></rect><path fill="#ffffff" d="M1275.97 1038.59h68.38v98.15h-68.38z" transform="rotate(-29.59 1120.014 1037.487)" class="colorffffff svgShape"></path><path fill="#afccc6" d="M1272.8 1052.34h44.04v2.05h-44.04z" transform="rotate(-29.59 1104.673 1003.18)" class="colorb1afcc svgShape"></path><path fill="#afccc6" d="M1274.93 1056.08h44.04v2.05h-44.04z" transform="rotate(-29.59 1106.784 1006.917)" class="colorb1afcc svgShape"></path><path fill="#afccc6" d="M1270.73 1061.49h50.79v2.05h-50.79z" transform="rotate(-29.59 1105.981 1012.335)" class="colorb1afcc svgShape"></path><path fill="#afccc6" d="M1272.86 1065.23h50.79v2.05h-50.79z" transform="rotate(-29.59 1108.092 1016.072)" class="colorb1afcc svgShape"></path><path fill="#afccc6" d="M1275.67 1071.6h40.14v2.05h-40.14z" transform="rotate(-29.59 1105.6 1022.44)" class="colorb1afcc svgShape"></path><path fill="#afccc6" d="M1286.76 1076.92h44.04v2.05h-44.04z" transform="rotate(-29.59 1118.633 1027.766)" class="colorb1afcc svgShape"></path><path fill="#afccc6" d="M1288.88 1080.66h44.04v2.05h-44.04z" transform="rotate(-29.59 1120.744 1031.503)" class="colorb1afcc svgShape"></path><path fill="#afccc6" d="M1284.69 1086.07h50.79v2.05h-50.79z" transform="rotate(-29.59 1119.941 1036.921)" class="colorb1afcc svgShape"></path><path fill="#afccc6" d="M1286.81 1089.81h50.79v2.05h-50.79z" transform="rotate(-29.59 1122.058 1040.64)" class="colorb1afcc svgShape"></path><path fill="#afccc6" d="M1289.63 1096.18h40.14v2.05h-40.14z" transform="rotate(-29.59 1119.56 1047.027)" class="colorb1afcc svgShape"></path><path fill="#afccc6" d="M1300.72 1101.5h44.04v2.05h-44.04z" transform="rotate(-29.59 1132.598 1052.334)" class="colorb1afcc svgShape"></path><path fill="#afccc6" d="M1302.84 1105.24h44.04v2.05h-44.04z" transform="rotate(-29.59 1134.705 1056.09)" class="colorb1afcc svgShape"></path><path fill="#afccc6" d="M1298.65 1110.65h50.79v2.05h-50.79z" transform="rotate(-29.59 1133.906 1061.49)" class="colorb1afcc svgShape"></path><path fill="#afccc6" d="M1300.77 1114.39h50.79v2.05h-50.79z" transform="rotate(-29.59 1136.018 1065.226)" class="colorb1afcc svgShape"></path><path fill="#afccc6" d="M1303.59 1120.76h40.14v2.05h-40.14z" transform="rotate(-29.59 1133.526 1071.595)" class="colorb1afcc svgShape"></path><circle cx="1273.15" cy="1068.5" r="2.46" fill="#87ffe5" transform="rotate(-29.59 1083.015 1018.318)" class="colorff8c87 svgShape"></circle><circle cx="1301.06" cy="1117.66" r="2.46" fill="#87ffe5" transform="rotate(-29.59 1110.884 1067.458)" class="colorff8c87 svgShape"></circle><circle cx="1287.11" cy="1093.08" r="2.46" fill="#87ffe5" transform="rotate(-29.59 1096.918 1042.89)" class="colorff8c87 svgShape"></circle><path fill="#87ffe5" d="M1265.8 1063.87a2.25 2.25 0 0 1-3.07-.85l-7-12.39a2.25 2.25 0 0 1 .85-3.07 2.25 2.25 0 0 1 3.07.85l7 12.39a2.25 2.25 0 0 1-.85 3.07ZM1275.09 1058.6a2.25 2.25 0 0 1-3.07-.85l-7-12.39a2.25 2.25 0 0 1 .85-3.07 2.25 2.25 0 0 1 3.07.85l7 12.39a2.25 2.25 0 0 1-.85 3.07ZM1284.39 1053.32a2.25 2.25 0 0 1-3.07-.85l-7-12.39a2.25 2.25 0 0 1 .85-3.07 2.25 2.25 0 0 1 3.07.85l7 12.39a2.25 2.25 0 0 1-.85 3.07ZM1293.68 1048a2.25 2.25 0 0 1-3.07-.85l-7-12.39a2.25 2.25 0 0 1 .85-3.07 2.25 2.25 0 0 1 3.07.85l7 12.39a2.25 2.25 0 0 1-.85 3.07ZM1303 1042.77a2.25 2.25 0 0 1-3.07-.85l-7-12.39a2.25 2.25 0 0 1 .85-3.07 2.25 2.25 0 0 1 3.07.85l7 12.39a2.25 2.25 0 0 1-.85 3.07ZM1312.27 1037.5a2.25 2.25 0 0 1-3.07-.85l-7-12.39a2.25 2.25 0 0 1 .85-3.07 2.25 2.25 0 0 1 3.07.85l7 12.39a2.25 2.25 0 0 1-.85 3.07Z" transform="translate(0 -100.55)" class="colorff8c87 svgShape"></path><path fill="#ffffff" d="M958.64 1546.71A7.62 7.62 0 0 1 960 1535l46.23-29.36a7.62 7.62 0 1 1 8.17 12.86l-46.23 29.36a7.62 7.62 0 0 1-9.53-1.15Z" transform="translate(0 -100.55)" class="colorffffff svgShape"></path><path fill="#1a2e2a" d="M959.31 1532.83s-17.37 10.19-14.49 14 48.48 54.08 51 52.18c8.69-6.48-22.66-53.32-27.22-56.48s-6.81-11.22-9.29-9.7Z" transform="translate(0 -100.55)" class="color1a1c2e svgShape"></path><path fill="#9dcfc4" d="M1346.91 933.45s30.6-24.61 40.26-22.45-16.82 28.87-40.34 32.12Z" transform="translate(0 -100.55)" class="colorcfb89d svgShape"></path><path fill="#c2fff2" d="M1341.26 929.45c4.38 4.62 8.82 8.91 13.11 13.31-68.23 70.67-125.87 83.84-213.24 43.36-13.36-6.19-12.8-11.36-6.57-21.95-1.15-2-1.25-1.81 0 0 6.23-10.59 10.08-11.24 23.66-5 88.78 41.02 104.78 27.97 183.04-29.72Z" transform="translate(0 -100.55)" class="colorffc4c2 svgShape"></path><path fill="#ffffff" d="M1184 1621.52a7.62 7.62 0 0 1-7.47-9.14l10.93-53.67a7.62 7.62 0 0 1 14.92 3l-10.93 53.67a7.62 7.62 0 0 1-7.45 6.14Z" transform="translate(0 -100.55)" class="colorffffff svgShape"></path><path fill="#293b37" d="M1200.8 1590.31a199 199 0 0 1-24.25-2.23c24.13-129 42.4-302.16-22.14-422.74q29.39-14.42 59-28.31c47.19 105.06 7.02 342.3-12.61 453.28Z" transform="translate(0 -100.55)" class="color292b3b svgShape"></path><path fill="#3b544f" d="M988.21 1542c-5.71-6.25-11.24-12.6-16.4-19.3 143.61-109.29 185.7-195.51 161.53-378.25q32.92-5.24 66-9.62c-2.43 201.73-61.94 283.03-211.13 407.17Z" transform="translate(0 -100.55)" class="color3b3e54 svgShape"></path><path fill="#1a2e2a" d="M1174.51 1611.4s-4.71 19.58 0 20.13 72.58 2.6 73-.54c1.36-10.75-54.12-20.67-59.56-19.58s-12.83-2.85-13.44-.01Z" transform="translate(0 -100.55)" class="color1a1c2e svgShape"></path><path fill="#9cffea" d="M1134.32 1178c10.51-4.16 25.7-8.18 52.18-9.31 18-.76 32.11-.13 43.17 1.35-46.32-99.41-54.35-149-50.15-176.87a38.55 38.55 0 0 0-14.52-36.42l-4.35-3.35c-20.23-15.53-49.85-4.4-54.65 20.6a207.06 207.06 0 0 0-3.44 28.76c-2.7 51.38 4.13 107.24 31.76 175.24Z" transform="translate(0 -100.55)" class="colorff9f9c svgShape"></path><path fill="#9dcfc4" d="M1245.63 1104.13s36.27-19.61 45.83-15.55-22.85 26.62-47.75 25.52Z" transform="translate(0 -100.55)" class="colorcfb89d svgShape"></path><path fill="#c2fff2" d="M1250.89 1100.15c2.82 7.05 5.65 14 8.87 20.53-128.73 9-161.74-17.49-153.07-136.41 1.33-18.19 5.36-20.13 21-15.93 11.74 3.16 11.38 9.72 9.91 25.93-9.6 106-4.01 99.73 113.29 105.88Z" transform="translate(0 -100.55)" class="colorffc4c2 svgShape"></path><path fill="#9dcfc4" d="M1125.8 910.58c8.68 21.34 30.59 32.59 43.63 27.28s12.28-25.16 3.6-46.5-23.68-27.9-36.72-22.59-19.2 20.47-10.51 41.81Z" transform="translate(0 -100.55)" class="colorcfb89d svgShape"></path><path fill="#1a2e2a" d="M1117.17 898.25s-1.05-15.51 7.63-24.8 29.64-16.83 41.79.28c0 0 7.52 12.94-8.86 20.69s-16.27-2.24-21.87 8.9-15.16 7.32-16.09 9.77Z" transform="translate(0 -100.55)" class="color1a1c2e svgShape"></path><path fill="#aac2bd" d="M1123 915.86s3-39.31 43.62-42.13c0 0 0-8.51-11-12.71s-31.68-6-56.25 14.08c0 0-6.34 8.94 2.07 10.76s7.82 3.32 8.12 7.22.18 27.92 13.44 22.78Z" transform="translate(0 -100.55)" class="coloracaac2 svgShape"></path><path fill="#9dcfc4" d="m1129.51 911.33 24.08-2.35c.32 3.3 2.85 34.7 1.62 46.53-.88 3.64-6.89 5.32-13.41 3.73-5.86-1.42-10.11-5-10.28-8.34.71-7.1-.89-28.05-2.01-39.57Z" transform="translate(0 -100.55)" class="colorcfb89d svgShape"></path><path fill="#9dcfc4" d="M1119.17 921.83c2 5 9.54 9.31 13.14 7.85s2.86-5.86.84-10.82-6.83-8.43-10.43-7-5.57 5-3.55 9.97Z" transform="translate(0 -100.55)" class="colorcfb89d svgShape"></path><path fill="#1a2e2a" d="m1178.74 914.5-.89.27c-4.56 1.44-25.32 8.35-28.72 15.74-3.81 8.31 10.72-1.43 15.49-6.3s9.1-3.26 13.34-3.67 7.04-5.06.78-6.04Z" transform="translate(0 -100.55)" class="color1a1c2e svgShape"></path><path fill="#1a1a1a" d="M1136.1 919.3c4.21-3.1 6.84.93 14.32 7.26s22.72 8 27.54-11.44c3.07-12.38 6.18 9.43 6.19 9.45-.56 10.53-4.53 16.2-12.27 19.35-10.68 4.35-25.66.55-37.54-10-1.17-5.49-1.12-12.51 1.76-14.62Z" transform="translate(0 -100.55)" class="color1a1a1a svgShape"></path><circle cx="2088.25" cy="738.63" r="49.37" fill="none" stroke="#1a2e2a" stroke-miterlimit="10" stroke-width="12" transform="rotate(-47.19 1972.959 688.37)" class="colorStroke1a1c2e svgStroke"></circle><path fill="none" stroke="#1a2e2a" stroke-miterlimit="10" stroke-width="12" d="m2124.46 671.63 60.62 56.16" class="colorStroke1a1c2e svgStroke"></path><path fill="#7affe2" d="M2180.68 793.63h23.48v83.01h-23.48z" transform="rotate(-47.19 2077.113 784.871)" class="colorff817a svgShape"></path><path fill="#c4fef1" d="M2379.8 1627.27c4.87-.94 9.75-1.87 14.6-2.91-22.44-112.57-52.2-232.09-50.15-347.36-8.28-.82-16.56-1.63-24.85-2.3-2.48 116.67 34.55 239.47 60.4 352.57ZM2228.73 1619.18c4.71 1.75 9.42 3.47 14.2 5 41.57-122.51 38-237.63 71-356.79q-11.68-4.79-23.5-9.23c-33.82 114.57-27.01 239.36-61.7 361.02Z" transform="translate(0 -100.55)" class="colorfec5c4 svgShape"></path><path fill="#293b37" d="M2249.26 1613s4.39 18 .06 18.47-66.61 2.61-67-.28c-1.28-9.86 49.61-19.13 54.61-18.15s11.75-2.64 12.33-.04ZM2394 1613s4.39 18 .06 18.47-66.61 2.61-67-.28c-1.28-9.86 49.61-19.13 54.61-18.15s11.74-2.64 12.33-.04Z" transform="translate(0 -100.55)" class="color292b3b svgShape"></path><path fill="#9dcfc4" d="M2194.61 870.26s-3-35.91-10.57-41-8.53 29.46 4.2 47.14Z" transform="translate(0 -100.55)" class="colorcfb89d svgShape"></path><path fill="#a3feea" d="M2198.41 868.28c-5.84.36-11.65.69-17.32 1.45 11 92 24.91 130.84 114.79 162.32 13.75 4.81 16.3-.38 17.66-11.48 2.54-.07 2.55 0 0 0 1.36-11.1-2.58-13.31-14.64-17.4-78.9-26.73-82.97-57.36-100.49-134.89Z" transform="translate(0 -100.55)" class="colorfea4a3 svgShape"></path><path fill="#293b37" d="M2286 1581.57c-4.67 2.62-34.48 26.16-65.76 16.11 4.32-137.11 33.78-354.72 116.24-423 7.86-4.31 8.54-.52 11.06-1.4 1.66 1.6 3.86 2.87 5.46 4.5 20.28 20.61 18 36.84 12 67.16-13.84 70.28 16.7 287.75 49.61 339.35-35.16 11.63-100.69-18.38-128.61-2.72Z" transform="translate(0 -100.55)" class="color292b3b svgShape"></path><path fill="#1a2e2a" d="M2297.56 905.51c6.83-.47 15.12 4.18 17.47 11s-2.83 13.81-9.27 16-19.52-4.6-21.88-11.38 5.04-15.03 13.68-15.62Z" transform="translate(0 -100.55)" class="color1a1c2e svgShape"></path><path fill="#1a2e2a" d="M2320.29 896.51c12.49-9.78 34.4-11.67 47.69-1.73s12.42 30.13 3 42.8-37.85 20.09-58.79 6.69c-14.02-8.95-7.71-35.37 8.1-47.76Z" transform="translate(0 -100.55)" class="color1a1c2e svgShape"></path><path fill="#1a2e2a" d="M2311.92 940.54c9.22-7.4 25.14-9.16 34.61-2.08s8.5 21.94 1.42 31.4-31.74 12.92-41.21 5.84-6.5-25.79 5.18-35.16Z" transform="translate(0 -100.55)" class="color1a1c2e svgShape"></path><path fill="#9dcfc4" d="M2326.41 953.25c-9.23 19-30 28-41.59 22.39s-9.75-23.78-.52-42.8 23.35-24.14 35-18.5 16.34 19.88 7.11 38.91Z" transform="translate(0 -100.55)" class="colorcfb89d svgShape"></path><path fill="#9dcfc4" d="M2331.81 964c-2.15 4.43-9.29 8-12.5 6.41s-2.27-5.53-.12-10 6.76-7.31 10-5.76 4.81 4.87 2.62 9.35Z" transform="translate(0 -100.55)" class="colorcfb89d svgShape"></path><path fill="#1a2e2a" d="M2335.05 942.47s1.89-14.14-5.51-23.16-26.14-17.18-38.3-2.24c0 0-7.66 11.4 6.88 19.48s15-1.09 19.5 9.46 13.44 7.61 14.15 9.91Z" transform="translate(0 -100.55)" class="color1a1c2e svgShape"></path><path fill="#c4fef1" d="M2290.64 1216.91c16.73.75 29.81-5 44.14-13.33 11-6.42 25.09-9.07 36.65-13.53 9.14-51.74-1.35-136.12-21.13-169.61-17.38-29.42-17.48-24.62-23.88-27.4-8.95-3.89-19.31-2.82-26.51 3.76l-.41.38c-8.33 7.81-8.85 25-10.37 42.84s-8.31 14.49 7 45.81c6.63 13.47-5.68 104.44-5.49 131.08Z" transform="translate(0 -100.55)" class="colorfec5c4 svgShape"></path><path fill="#9dcfc4" d="m2319.68 956-22.15 1.63c.22 3 2.84 31.83 5.79 42.34 1.37 3.16 7.06 3.73 12.71 1.28 5.08-2.2 8.37-6.09 8-9.15-1.74-6.35-3.57-25.55-4.35-36.1ZM2359.42 1206.43s-27.52 26-26.73 35.48 29.77-12.26 36-34.28Z" transform="translate(0 -100.55)" class="colorcfb89d svgShape"></path><path fill="#a3feea" d="M2351.88 1211.87c4.77 3.92 8.6 7.4 13.73 11.71 67.55-98.39 54.72-131.27-18.54-217.91-11.21-13.25-34.58 5.56-13.64 25.83 73.48 71.16 66.76 87.93 18.45 180.37Z" transform="translate(0 -100.55)" class="colorfea4a3 svgShape"></path><path fill="#ffffff" d="M1442 372a29.93 29.93 0 0 0 30-29.94 29.93 29.93 0 0 0 29.89 29.94 29.93 29.93 0 0 0-29.89 29.92 29.93 29.93 0 0 0-30-29.92ZM2798 1154.82a29.93 29.93 0 0 0 29.93-29.93 29.93 29.93 0 0 0 29.93 29.93 29.93 29.93 0 0 0-29.93 29.93 29.93 29.93 0 0 0-29.93-29.93ZM397 1361.47a29.93 29.93 0 0 0 29.93-29.93 29.93 29.93 0 0 0 29.93 29.93 29.93 29.93 0 0 0-29.93 29.93 29.93 29.93 0 0 0-29.93-29.93ZM1836 1471.87a16.7 16.7 0 0 0 16.7-16.7 16.7 16.7 0 0 0 16.7 16.7 16.7 16.7 0 0 0-16.7 16.7 16.7 16.7 0 0 0-16.7-16.7ZM323 1471.87a16.7 16.7 0 0 0 16.7-16.7 16.7 16.7 0 0 0 16.7 16.7 16.7 16.7 0 0 0-16.7 16.7 16.7 16.7 0 0 0-16.7-16.7ZM2894.6 1048.74a16.7 16.7 0 0 0 16.7-16.7 16.7 16.7 0 0 0 16.7 16.7 16.7 16.7 0 0 0-16.7 16.7 16.7 16.7 0 0 0-16.7-16.7Z" transform="translate(0 -100.55)" class="colorffffff svgShape"></path></svg>