<svg xmlns="http://www.w3.org/2000/svg" version="1.1" xmlns:xlink="http://www.w3.org/1999/xlink" xmlns:svgjs="http://svgjs.dev/svgjs" width="128" height="128" viewBox="0 0 128 128"><g transform="matrix(0.8046875,0,0,0.8046875,12.345419508383074,11.93022933467742)"><svg viewBox="0 0 153 155" data-background-color="#ffffff" preserveAspectRatio="xMidYMid meet" height="129" width="128" xmlns="http://www.w3.org/2000/svg" xmlns:xlink="http://www.w3.org/1999/xlink"><g id="tight-bounds" transform="matrix(1,0,0,1,0.22961956521737648,0.25)"><svg viewBox="0 0 152.54076086956522 154.5" height="154.5" width="152.54076086956522"><g><svg viewBox="0 0 152.54076086956522 154.5" height="154.5" width="152.54076086956522"><g><svg viewBox="0 0 152.54076086956522 154.5" height="154.5" width="152.54076086956522"><g id="textblocktransform"><svg viewBox="0 0 152.54076086956522 154.5" height="154.5" width="152.54076086956522" id="textblock"><g><svg viewBox="0 0 152.54076086956522 154.5" height="154.5" width="152.54076086956522"><g transform="matrix(1,0,0,1,0,0)"><svg width="152.54076086956522" viewBox="1.6 -27 27.25 27.6" height="154.5" data-palette-color="#085f63"><path d="M15.55-27Q20.85-27 24.53-24.93 28.2-22.85 28.2-18.5L28.2-18.5 18.95-18.5Q18.95-19.95 17.65-20.55L17.65-20.55Q16.75-21.05 15.4-21.05L15.4-21.05Q11.8-21.05 11.8-19.35L11.8-19.35Q11.8-18.4 13.05-18 14.3-17.6 17.15-17.15L17.15-17.15Q20.65-16.65 23-15.98 25.35-15.3 27.1-13.58 28.85-11.85 28.85-8.75L28.85-8.75Q28.85-3.7 25.08-1.55 21.3 0.6 15.2 0.6L15.2 0.6Q11.7 0.6 8.6-0.38 5.5-1.35 3.55-3.4 1.6-5.45 1.6-8.6L1.6-8.6 10.85-8.6 10.85-8.4Q10.9-6.7 12.28-6.03 13.65-5.35 15.2-5.35L15.2-5.35Q19.35-5.35 19.35-7.3L19.35-7.3Q19.35-8.3 18.05-8.75 16.75-9.2 13.8-9.7L13.8-9.7Q10.25-10.3 7.98-11 5.7-11.7 4-13.38 2.3-15.05 2.3-18.05L2.3-18.05Q2.3-22.9 5.98-24.95 9.65-27 15.55-27L15.55-27Z" opacity="1" transform="matrix(1,0,0,1,0,0)" fill="#085f63" class="wordmark-text-0" data-fill-palette-color="primary" id="text-0"></path></svg></g></svg></g></svg></g></svg></g></svg></g><defs></defs></svg><rect width="152.54076086956522" height="154.5" fill="none" stroke="none" visibility="hidden"></rect></g></svg></g></svg>